# AST/ASF file generated using VICON BodyLanguage
# -----------------------------------------------
:version 1.10
:name VICON
:units
  mass 1.0
  length 0.45
  angle deg
:documentation
   .ast/.asf automatically generated from VICON data using
   VICON BodyBuilder and BodyLanguage model FoxedUp or BRILLIANT.MOD
:root
   order TX TY TZ RX RY RZ
   axis XYZ
   position 0 0 0  
   orientation 0 0 0 
:bonedata
  begin
     id 1 
     name lhipjoint
     direction 0.560651 -0.75055 0.34978 
     length 2.44936 
     axis 0 0 0  XYZ
  end
  begin
     id 2 
     name lfemur
     direction 0.34202 -0.939693 0  
     length 7.42139  
     axis 0 0 20  XYZ
    dof rx ry rz
    limits (-160.0 20.0)
           (-70.0 70.0)
           (-60.0 70.0)
  end
  begin
     id 3 
     name ltibia
     direction 0.34202 -0.939693 0   
     length 7.75674   
     axis 0 0 20   XYZ
    dof rx
    limits (-10.0 170.0)
  end
  begin
     id 4 
     name lfoot
     direction 0.0925879 -0.254383 0.962661   
     length 2.38688   
     axis -90 7.62852e-016 20   XYZ
    dof rx rz
    limits (-45.0 90.0)
           (-70.0 20.0)
  end
  begin
     id 5 
     name ltoes
     direction 1.53567e-011 -4.21973e-011 1   
     length 1.19228   
     axis -90 7.62852e-016 20   XYZ
    dof rx
    limits (-90.0 20.0)
  end
  begin
     id 6 
     name rhipjoint
     direction -0.540087 -0.762838 0.355506   
     length 2.4099  
     axis 0 0 0  XYZ 
  end
  begin
     id 7 
     name rfemur
     direction -0.34202 -0.939693 0   
     length 7.70794   
     axis 0 0 -20   XYZ
    dof rx ry rz
    limits (-160.0 20.0)
           (-70.0 70.0)
           (-70.0 60.0)
  end
  begin
     id 8 
     name rtibia
     direction -0.34202 -0.939693 0   
     length 7.66106   
     axis 0 0 -20   XYZ
    dof rx
    limits (-10.0 170.0)
 end
 begin
     id 9 
     name rfoot
     direction -0.0830975 -0.228308 0.970036   
     length 2.4989  
     axis -90 -7.62852e-016 -20   XYZ
    dof rx rz
    limits (-45.0 90.0)
           (-20.0 70.0)
  end
  begin
     id 10 
     name rtoes
     direction -1.53517e-011 -4.21842e-011 1   
     length 1.2498   
     axis -90 -7.62852e-016 -20   XYZ
    dof rx
    limits (-90.0 20.0)
  end
  begin
     id 11 
     name lowerback
     direction 0.0266356 0.99402 -0.105896   
     length 2.1545   
     axis 0 0 0   XYZ
    dof rx ry rz
    limits (-20.0 45.0)
           (-30.0 30.0)
           (-30.0 30.0)
  end
  begin
     id 12 
     name upperback
     direction 0.0130547 0.999192 0.0380027   
     length 2.1434   
     axis 0 0 0   XYZ
    dof rx ry rz
    limits (-20.0 45.0)
           (-30.0 30.0)
           (-30.0 30.0)
  end
  begin
     id 13 
     name thorax
     direction 0.000590299 0.996288 0.0860764   
     length 2.19049   
     axis 0 0 0   XYZ
    dof rx ry rz
    limits (-20.0 45.0)
           (-30.0 30.0)
           (-30.0 30.0)
  end
  begin
     id 14 
     name lowerneck
     direction -0.0432125 0.978219 0.203028   
     length 1.62441   
     axis 0 0 0   XYZ
    dof rx ry rz
    limits (-20.0 45.0)
           (-30.0 30.0)
           (-30.0 30.0)
  end
  begin
     id 15 
     name upperneck
     direction -0.0192309 0.991699 -0.127138   
     length 1.66666   
     axis 0 0 0   XYZ
    dof rx ry rz
    limits (-20.0 45.0)
           (-30.0 30.0)
           (-30.0 30.0)
  end
  begin
     id 16
     name head
     direction -0.00434499 0.997882 -0.0649107  
     length 1.67142  
     axis 0 0 0   XYZ
    dof rx ry rz
    limits (-20.0 45.0)
           (-30.0 30.0)
           (-30.0 30.0)
  end
  begin
     id 17 
     name lclavicle
     direction 0.970351 0.240904 -0.0196058  
     length 4.04862  
     axis 0 0 0   XYZ
    dof ry rz
    limits (-20.0 10.0)
           (0.0 20.0)
  end
  begin
     id 18 
     name lhumerus
     direction 1 -4.4896e-011 -1.40911e-018   
     length 5.58345   
     axis 180 -30 -90   XYZ
    dof rx ry rz
    limits (-60.0 90.0)
           (-90.0 90.0)
           (-90.0 90.0)
  end
  begin
     id 19
     name lradius
     direction 1 -4.48968e-011 5.88912e-028   
     length 3.71087   
     axis 180 -30 -90   XYZ
    dof rx
    limits (-10.0 170.0)
  end
  begin
     id 20
     name lwrist
     direction 1 -4.48955e-011 -8.83775e-028   
     length 1.85544   
     axis 5.52448e-016 90 90   XYZ
    dof ry
    limits (-180.0 0.0)
 end
  begin
     id 21 
     name lhand
     direction 1 -4.49035e-011 -1.76755e-027   
     length 0.562322   
     axis 1.12785e-015 90 90   XYZ
    dof rx rz
    limits (-90.0 90.0)
           (-45.0 45.0)
  end
  begin
     id 22 
     name lfingers
     direction 1 -4.48824e-011 -3.5351e-027   
     length 0.453359   
     axis 2.2557e-015 90 90   XYZ
    dof rx
    limits (0.0 90.0)
  end
  begin
     id 23
     name lthumb
     direction 0.707107 -6.34888e-011 0.707107   
     length 0.650935   
     axis -90 45 2.85299e-015   XYZ
    dof rx rz
    limits (-45.0 45.0)
           (-45.0 45.0)
  end
  begin
     id 24 
     name rclavicle
     direction -0.96165 0.268562 -0.0557131   
     length 4.05446  
     axis 0 0 0   XYZ 
    dof ry rz
    limits (-10.0 20.0)
           (-20.0 0.0)
  end
  begin
     id 25 
     name rhumerus
     direction -1 -4.48957e-011 -3.36329e-027  
     length 5.20357   
     axis 180 30 90   XYZ
    dof rx ry rz
    limits (-90.0 60.0)
           (-90.0 90.0)
           (-90.0 90.0)
  end
  begin
     id 26 
     name rradius
     direction -1 -4.48974e-011 4.51441e-027   
     length 3.64937   
     axis 180 30 90   XYZ
    dof rx
    limits (-10.0 170.0)
  end
  begin
     id 27 
     name rwrist
     direction -1 -4.4896e-011 -8.83775e-028   
     length 1.82468   
     axis 5.52448e-016 -90 -90   XYZ
    dof ry
    limits (-180.0 0.0)
  end
  begin
     id 28
     name rhand
     direction -1 -4.48996e-011 -1.76755e-027   
     length 0.617996   
     axis 1.12785e-015 -90 -90   XYZ
    dof rx rz
    limits (-90.0 90.0)
           (-45.0 45.0)
  end
  begin
     id 29
     name rfingers
     direction -1 -4.48957e-011 -3.5351e-027   
     length 0.498244   
     axis 2.2557e-015 -90 -90   XYZ
    dof rx
    limits (0.0 90.0)
  end
  begin
     id 30
     name rthumb
     direction -0.707107 -6.34931e-011 0.707107   
     length 0.715382   
     axis -90 -45 -2.85299e-015   XYZ
    dof rx rz
    limits (-45.0 45.0)
           (-45.0 45.0)
  end
:hierarchy
  begin
    root lhipjoint rhipjoint lowerback
    lhipjoint lfemur
    lfemur ltibia
    ltibia lfoot
    lfoot ltoes
    rhipjoint rfemur
    rfemur rtibia
    rtibia rfoot
    rfoot rtoes
    lowerback upperback
    upperback thorax
    thorax lowerneck lclavicle rclavicle
    lowerneck upperneck
    upperneck head
    lclavicle lhumerus
    lhumerus lradius
    lradius lwrist
    lwrist lhand lthumb
    lhand lfingers
    rclavicle rhumerus
    rhumerus rradius
    rradius rwrist
    rwrist rhand rthumb
    rhand rfingers
  end

#!OML:ASF H:\ManfredETheater\Project 1\Capture day 2\Session 1\Male1.ASF
:FULLY-SPECIFIED
:DEGREES
16
root 4.4937 16.8613 -19.8752 4.56301 1.28411 -1.59798
lowerback 19.8979 -0.00204343 2.87956
upperback 1.01934 1.02116 3.53461
thorax -10.0893 0.444681 1.95154
lowerneck -21.602 -0.845898 -0.74942
upperneck 12.803 -0.137138 -4.36179
head 7.46277 -0.544863 -1.34555
rclavicle -8.74653e-015 -6.2816e-014
rhumerus -54.0651 1.94399 -79.7183
rradius 71.0927
rwrist -0.236286
rhand -32.7061 1.56028
rfingers 7.12502
rthumb -5.9305 -28.3367
lclavicle -8.74653e-015 -6.2816e-014
lhumerus -52.1174 -10.2832 97.4671
lradius 97.6176
lwrist 12.2581
lhand -20.6309 -10.1384
lfingers 7.12502
lthumb 5.73073 19.7641
rfemur -23.777 -8.87165 17.1888
rtibia 89.6319
rfoot -10.9707 -11.6487
rtoes -8.03631
lfemur -32.105 0.921796 -25.3236
ltibia 56.074
lfoot -19.6638 -3.18494
ltoes 11.5692
17
root 4.53468 16.8143 -19.3264 5.24625 1.28917 -0.684851
lowerback 19.2417 -0.268799 2.51321
upperback 0.782417 0.538056 3.26823
thorax -9.979 0.226506 1.99918
lowerneck -21.8145 -0.588701 -0.625492
upperneck 12.9987 0.210942 -4.49814
head 7.57096 -0.391966 -1.37132
rclavicle -2.38542e-015 4.77083e-015
rhumerus -54.9034 1.18579 -78.7683
rradius 70.588
rwrist -0.776464
rhand -32.6802 0.893788
rfingers 7.12502
rthumb -5.90545 -29.0039
lclavicle -2.38542e-015 4.77083e-015
lhumerus -50.4635 -11.0836 97.3827
lradius 97.7277
lwrist 12.2762
lhand -20.5502 -10.1824
lfingers 7.12502
lthumb 5.80865 19.718
rfemur -28.4366 -9.61088 16.284
rtibia 91.0939
rfoot -12.4547 -11.8007
rtoes -7.2554
lfemur -30.4946 0.49213 -26.5173
ltibia 55.8651
lfoot -21.5283 -2.32069
ltoes 11.1737
18
root 4.58669 16.774 -18.7721 5.85106 1.08603 -0.00977793
lowerback 18.581 -0.498231 2.43991
upperback 0.603381 0.177068 3.08893
thorax -9.80058 0.0540431 1.93578
lowerneck -21.9742 -0.306423 -0.517818
upperneck 13.117 0.609191 -4.71846
head 7.64776 -0.223254 -1.41436
rclavicle -1.98785e-015 -1.03368e-014
rhumerus -55.7512 0.624193 -77.7749
rradius 70.3809
rwrist -1.18004
rhand -32.7258 0.290959
rfingers 7.12502
rthumb -5.94949 -29.6055
lclavicle -1.98785e-015 -1.03368e-014
lhumerus -48.9802 -11.7034 97.3114
lradius 97.9769
lwrist 11.7075
lhand -20.2197 -9.94743
lfingers 7.12502
lthumb 6.12767 19.9439
rfemur -32.9456 -10.0146 15.7454
rtibia 91.6818
rfoot -13.6991 -11.6456
rtoes -7.72313
lfemur -28.7535 0.0738085 -27.4354
ltibia 55.5856
lfoot -23.0128 -1.60451
ltoes 10.3615
19
root 4.63901 16.7391 -18.2108 6.27047 0.789911 0.7199
lowerback 18.011 -0.668103 2.24631
upperback 0.520132 -0.123451 2.9612
thorax -9.56724 -0.0833663 1.97666
lowerneck -22.1454 -0.0261084 -0.395513
upperneck 13.162 1.02369 -5.07983
head 7.70556 -0.0599852 -1.50381
rclavicle 4.77083e-015 2.06736e-014
rhumerus -56.6507 0.229375 -76.7445
rradius 70.5226
rwrist -1.51049
rhand -32.7124 0.0539315
rfingers 7.12502
rthumb -5.93659 -29.8429
lclavicle 4.77083e-015 2.06736e-014
lhumerus -47.6194 -12.2223 97.3086
lradius 98.266
lwrist 10.5213
lhand -19.6556 -9.59712
lfingers 7.12502
lthumb 6.6723 20.2778
rfemur -37.0842 -10.2015 15.257
rtibia 91.3727
rfoot -14.8437 -11.2958
rtoes -8.72348
lfemur -26.7143 -0.140938 -28.4101
ltibia 55.2538
lfoot -24.1033 -1.26425
ltoes 9.56526
20
root 4.68352 16.7231 -17.6435 6.4458 0.55955 1.47222
lowerback 17.666 -0.859923 1.90679
upperback 0.514958 -0.464931 2.91776
thorax -9.37026 -0.232248 2.20249
lowerneck -22.3164 0.281949 -0.315845
upperneck 13.1869 1.50208 -5.51501
head 7.76178 0.123473 -1.60229
rclavicle 1.19271e-014 -4.77083e-015
rhumerus -57.556 0.0231663 -75.704
rradius 70.9518
rwrist -1.79896
rhand -32.7884 0.392175
rfingers 7.12502
rthumb -6.0099 -29.5026
lclavicle 1.19271e-014 -4.77083e-015
lhumerus -46.4565 -12.5477 97.2986
lradius 98.6012
lwrist 8.88558
lhand -19.5037 -9.89363
lfingers 7.12502
lthumb 6.81888 19.9766
rfemur -40.6062 -10.2588 14.8908
rtibia 90.0998
rfoot -15.7563 -11.0677
rtoes -11.3156
lfemur -24.3688 0.107877 -29.3793
ltibia 54.7621
lfoot -24.6123 -1.333
ltoes 7.58344
21
root 4.72891 16.7381 -17.0722 6.4903 0.309294 2.15647
lowerback 17.517 -1.04157 1.61908
upperback 0.524122 -0.767514 2.93385
thorax -9.26506 -0.363971 2.45599
lowerneck -22.3699 0.582694 -0.289101
upperneck 13.1379 1.9876 -5.98621
head 7.7773 0.306694 -1.70171
rclavicle -8.74653e-015 2.38542e-014
rhumerus -58.3804 0.0399145 -74.7403
rradius 71.4653
rwrist -2.37608
rhand -33.6541 1.15576
rfingers 7.12502
rthumb -6.84569 -28.7136
lclavicle -8.74653e-015 2.38542e-014
lhumerus -45.5513 -12.8382 97.3569
lradius 98.9905
lwrist 7.13754
lhand -19.8024 -10.433
lfingers 7.12502
lthumb 6.53055 19.4464
rfemur -43.5941 -10.0987 14.6607
rtibia 87.8308
rfoot -16.5957 -10.8456
rtoes -13.7709
lfemur -21.8286 0.66857 -30.2463
ltibia 54.0984
lfoot -24.5164 -1.61619
ltoes 4.7219
